<?xml version="1.0" standalone="no"?>
<!DOCTYPE svg PUBLIC "-//W3C//DTD SVG 20010904//EN"
 "http://www.w3.org/TR/2001/REC-SVG-20010904/DTD/svg10.dtd">
<svg version="1.0" xmlns="http://www.w3.org/2000/svg"
 width="512.000000pt" height="512.000000pt" viewBox="0 0 512.000000 512.000000"
 preserveAspectRatio="xMidYMid meet">
<metadata>
Created by potrace 1.11, written by Peter Selinger 2001-2013
</metadata>
<g transform="translate(0.000000,512.000000) scale(0.100000,-0.100000)"
fill="#000000" stroke="none">
<path d="M2350 5110 c-787 -72 -1483 -483 -1914 -1130 -218 -327 -347 -661
-408 -1055 -30 -199 -30 -531 0 -730 113 -731 509 -1357 1112 -1759 327 -218
661 -347 1055 -408 199 -30 531 -30 730 0 394 61 728 190 1055 408 603 402
999 1028 1112 1759 30 199 30 531 0 730 -61 394 -190 728 -408 1055 -401 602
-1037 1004 -1757 1111 -152 22 -438 32 -577 19z m1200 -1529 l0 -270 -633
-758 c-348 -418 -637 -764 -641 -771 -5 -9 74 -12 348 -12 l356 0 0 200 0 200
285 0 285 0 0 -455 0 -455 -990 0 -990 0 0 265 0 265 625 769 c344 423 625
772 625 775 0 3 -153 6 -340 6 l-340 0 0 -205 0 -205 -285 0 -285 0 0 460 0
460 990 0 990 0 0 -269z"/>
</g>
</svg>
