<?xml version="1.0" standalone="no"?>
<!DOCTYPE svg PUBLIC "-//W3C//DTD SVG 20010904//EN"
 "http://www.w3.org/TR/2001/REC-SVG-20010904/DTD/svg10.dtd">
<svg version="1.0" xmlns="http://www.w3.org/2000/svg"
 width="512.000000pt" height="512.000000pt" viewBox="0 0 512.000000 512.000000"
 preserveAspectRatio="xMidYMid meet">
<metadata>
Created by potrace 1.11, written by Peter Selinger 2001-2013
</metadata>
<g transform="translate(0.000000,512.000000) scale(0.100000,-0.100000)"
fill="#000000" stroke="none">
<path d="M2370 5074 c-19 -2 -75 -9 -125 -15 -442 -54 -892 -243 -1257 -529
-107 -84 -314 -291 -398 -398 -285 -365 -460 -779 -531 -1257 -18 -119 -18
-511 0 -630 71 -478 246 -892 531 -1257 84 -107 291 -314 398 -398 365 -285
779 -460 1257 -531 119 -18 511 -18 630 0 478 71 892 246 1257 531 107 84 314
291 398 398 285 365 460 779 531 1257 18 119 18 511 0 630 -71 478 -246 892
-531 1257 -84 107 -291 314 -398 398 -356 279 -760 453 -1219 525 -93 15 -466
28 -543 19z m1180 -1491 l0 -268 -645 -774 c-355 -425 -644 -774 -643 -775 2
0 164 0 361 2 l357 3 0 199 0 200 280 0 280 0 0 -455 0 -455 -985 0 -985 0 0
263 0 264 507 624 c278 343 562 693 630 777 l124 152 -345 0 -346 0 0 -205 0
-205 -280 0 -280 0 0 460 0 460 985 0 985 0 0 -267z"/>
</g>
</svg>
